<svg width="80" height="174" viewBox="0 0 80 174" fill="none" xmlns="http://www.w3.org/2000/svg">
<path d="M12 32.4788C12 20.3285 21.8497 10.4788 34 10.4788H55C68.8071 10.4788 80 21.6716 80 35.4788V119.795C80 149.444 55.9648 173.479 26.3158 173.479C18.4094 173.479 12 167.069 12 159.163V32.4788Z" fill="#C8F3D8"/>
<path d="M1.5 22.4788C1.5 11.1569 10.6782 1.97876 22 1.97876H43C55.9787 1.97876 66.5 12.5001 66.5 25.4788V109.795C66.5 138.615 43.1363 161.979 14.3158 161.979C7.23783 161.979 1.5 156.241 1.5 149.163V22.4788Z" stroke="#FAB87B" stroke-width="3"/>
</svg>
