<svg width="24" height="25" viewBox="0 0 24 25" fill="none" xmlns="http://www.w3.org/2000/svg">
<g clip-path="url(#clip0_115_90)">
<path d="M12 24.041C13.6392 24.041 15.1824 23.7273 16.6294 23.0998C18.0765 22.4724 19.3529 21.6057 20.4588 20.4998C21.5647 19.3939 22.4314 18.1175 23.0588 16.6704C23.6863 15.2234 24 13.6803 24 12.041C24 10.4018 23.6863 8.85865 23.0588 7.41159C22.4314 5.96454 21.5647 4.68807 20.4588 3.58218C19.3529 2.47631 18.0745 1.60964 16.6235 0.982191C15.1725 0.354741 13.6274 0.0410156 11.9882 0.0410156C10.349 0.0410156 8.80587 0.354741 7.35882 0.982191C5.91176 1.60964 4.63725 2.47631 3.53529 3.58218C2.43333 4.68807 1.56863 5.96454 0.941175 7.41159C0.313725 8.85865 0 10.4018 0 12.041C0 13.6803 0.313725 15.2234 0.941175 16.6704C1.56863 18.1175 2.43529 19.3939 3.54117 20.4998C4.64706 21.6057 5.92352 22.4724 7.37057 23.0998C8.81763 23.7273 10.3608 24.041 12 24.041ZM12 22.041C10.6118 22.041 9.31371 21.7822 8.10588 21.2645C6.89803 20.7469 5.83725 20.0312 4.92352 19.1175C4.0098 18.2038 3.29608 17.143 2.78235 15.9352C2.26862 14.7273 2.01176 13.4293 2.01176 12.041C2.01176 10.6528 2.26862 9.35473 2.78235 8.14689C3.29608 6.93905 4.00784 5.8763 4.91764 4.95865C5.82744 4.04101 6.88626 3.32532 8.09411 2.81159C9.30195 2.29788 10.6 2.04102 11.9882 2.04102C13.3765 2.04102 14.6745 2.29788 15.8823 2.81159C17.0902 3.32532 18.1529 4.04101 19.0706 4.95865C19.9883 5.8763 20.7059 6.93905 21.2235 8.14689C21.7411 9.35473 22 10.6528 22 12.041C22 13.4293 21.7431 14.7273 21.2294 15.9352C20.7157 17.143 20.0019 18.2038 19.0882 19.1175C18.1745 20.0312 17.1117 20.7469 15.8999 21.2645C14.6882 21.7822 13.3883 22.041 12 22.041ZM14.3177 17.8528C14.4981 17.6802 14.5882 17.4684 14.5882 17.2175C14.5882 16.9665 14.502 16.7586 14.3294 16.5939L9.49411 12.041L14.3294 7.49983C14.5097 7.32728 14.596 7.11551 14.5882 6.86453C14.5804 6.61355 14.4862 6.40571 14.3059 6.241C14.1411 6.0763 13.9392 5.99787 13.7 6.00571C13.4608 6.01356 13.2509 6.10375 13.0706 6.2763L8.16469 10.8881C7.94509 11.092 7.79803 11.3351 7.72352 11.6175C7.64901 11.8998 7.64901 12.1822 7.72352 12.4645C7.79803 12.7469 7.94509 12.9901 8.16469 13.194L13.0706 17.8175C13.2353 17.9744 13.4451 18.0567 13.7 18.0645C13.9549 18.0723 14.1608 18.0018 14.3177 17.8528Z" fill="#6D6E76"/>
</g>
<defs>
<clipPath id="clip0_115_90">
<rect width="24" height="24.0117" fill="white" transform="translate(0 0.0410156)"/>
</clipPath>
</defs>
</svg>
