<svg width="41" height="40" viewBox="0 0 41 40" fill="none" xmlns="http://www.w3.org/2000/svg">
<path d="M20.2136 39.9805C22.9444 39.9805 25.515 39.4579 27.9255 38.4126C30.3362 37.3674 32.4626 35.9237 34.3047 34.0814C36.147 32.2392 37.5908 30.1128 38.636 27.7021C39.6813 25.2916 40.2039 22.721 40.2039 19.9902C40.2039 17.2595 39.6813 14.6889 38.636 12.2783C37.5908 9.86773 36.147 7.74132 34.3047 5.89907C32.4626 4.05684 30.3329 2.6131 27.9157 1.56786C25.4986 0.522621 22.9247 0 20.194 0C17.4633 0 14.8927 0.522621 12.4821 1.56786C10.0715 2.6131 7.94837 4.05684 6.11267 5.89907C4.27697 7.74132 2.83649 9.86773 1.79125 12.2783C0.746009 14.6889 0.223389 17.2595 0.223389 19.9902C0.223389 22.721 0.746009 25.2916 1.79125 27.7021C2.83649 30.1128 4.28023 32.2392 6.12246 34.0814C7.96471 35.9237 10.0911 37.3674 12.5017 38.4126C14.9123 39.4579 17.4829 39.9805 20.2136 39.9805ZM20.2136 36.6487C17.901 36.6487 15.7387 36.2176 13.7266 35.3553C11.7145 34.493 9.9474 33.3008 8.42526 31.7787C6.90313 30.2565 5.71417 28.4894 4.85838 26.4774C4.00259 24.4653 3.57469 22.3029 3.57469 19.9902C3.57469 17.6776 4.00259 15.5153 4.85838 13.5032C5.71417 11.4911 6.89987 9.72074 8.41546 8.19208C9.93106 6.66341 11.6949 5.47118 13.707 4.61538C15.7191 3.7596 17.8814 3.33171 20.194 3.33171C22.5066 3.33171 24.669 3.7596 26.6811 4.61538C28.6932 5.47118 30.4635 6.66341 31.9922 8.19208C33.5209 9.72074 34.7164 11.4911 35.5787 13.5032C36.441 15.5153 36.8721 17.6776 36.8721 19.9902C36.8721 22.3029 36.4443 24.4653 35.5885 26.4774C34.7327 28.4894 33.5437 30.2565 32.0215 31.7787C30.4994 33.3008 28.729 34.493 26.7104 35.3553C24.6919 36.2176 22.5263 36.6487 20.2136 36.6487ZM24.0746 29.6719C24.3751 29.3844 24.5253 29.0316 24.5253 28.6135C24.5253 28.1954 24.3815 27.8491 24.094 27.5747L16.0392 19.9902L24.094 12.4253C24.3945 12.1379 24.5383 11.7851 24.5253 11.367C24.5122 10.9489 24.3554 10.6027 24.0549 10.3283C23.7805 10.0539 23.4441 9.92326 23.0456 9.93632C22.6471 9.94939 22.2975 10.0996 21.9971 10.3871L13.8246 18.0696C13.4588 18.4093 13.2138 18.8143 13.0897 19.2847C12.9655 19.7551 12.9655 20.2254 13.0897 20.6958C13.2138 21.1662 13.4588 21.5712 13.8246 21.9109L21.9971 29.6131C22.2715 29.8744 22.621 30.0115 23.0456 30.0245C23.4703 30.0376 23.8133 29.9201 24.0746 29.6719Z" fill="#6D6E76"/>
</svg>
