<svg width="41" height="40" viewBox="0 0 41 40" fill="none" xmlns="http://www.w3.org/2000/svg">
<path d="M20.1942 39.9805C22.9249 39.9805 25.4955 39.4579 27.9061 38.4126C30.3167 37.3674 32.4431 35.9237 34.2853 34.0814C36.1276 32.2392 37.5713 30.1128 38.6165 27.7021C39.6618 25.2916 40.1844 22.721 40.1844 19.9902C40.1844 17.2595 39.6618 14.6889 38.6165 12.2783C37.5713 9.86773 36.1276 7.74132 34.2853 5.89907C32.4431 4.05684 30.3134 2.6131 27.8962 1.56786C25.4792 0.522621 22.9053 0 20.1746 0C17.4439 0 14.8732 0.522621 12.4626 1.56786C10.0521 2.6131 7.9289 4.05684 6.0932 5.89907C4.25749 7.74132 2.81702 9.86773 1.77178 12.2783C0.726539 14.6889 0.203918 17.2595 0.203918 19.9902C0.203918 22.721 0.726539 25.2916 1.77178 27.7021C2.81702 30.1128 4.26076 32.2392 6.10299 34.0814C7.94524 35.9237 10.0717 37.3674 12.4822 38.4126C14.8928 39.4579 17.4635 39.9805 20.1942 39.9805ZM20.1942 36.6487C17.8816 36.6487 15.7192 36.2176 13.7071 35.3553C11.695 34.493 9.92793 33.3008 8.40579 31.7787C6.88366 30.2565 5.6947 28.4894 4.83891 26.4774C3.98312 24.4653 3.55522 22.3029 3.55522 19.9902C3.55522 17.6776 3.98312 15.5153 4.83891 13.5032C5.6947 11.4911 6.8804 9.72074 8.39599 8.19208C9.91159 6.66341 11.6754 5.47118 13.6875 4.61538C15.6996 3.7596 17.862 3.33171 20.1746 3.33171C22.4872 3.33171 24.6495 3.7596 26.6616 4.61538C28.6737 5.47118 30.4441 6.66341 31.9728 8.19208C33.5015 9.72074 34.697 11.4911 35.5592 13.5032C36.4215 15.5153 36.8527 17.6776 36.8527 19.9902C36.8527 22.3029 36.4248 24.4653 35.5691 26.4774C34.7132 28.4894 33.5242 30.2565 32.0021 31.7787C30.4799 33.3008 28.7095 34.493 26.6909 35.3553C24.6724 36.2176 22.5068 36.6487 20.1942 36.6487ZM15.7258 29.6719C15.9871 29.9201 16.33 30.0376 16.7547 30.0245C17.1793 30.0115 17.5288 29.8744 17.8032 29.6131L25.9757 21.9109C26.3414 21.5712 26.5864 21.1662 26.7106 20.6958C26.8347 20.2254 26.8347 19.7551 26.7106 19.2847C26.5864 18.8143 26.3414 18.4093 25.9757 18.0696L17.8032 10.3871C17.5027 10.0996 17.1532 9.94939 16.7547 9.93632C16.3562 9.92326 16.0197 10.0539 15.7453 10.3283C15.4448 10.6027 15.2881 10.9489 15.275 11.367C15.2619 11.7851 15.4056 12.1379 15.7062 12.4253L23.7611 19.9902L15.7062 27.5747C15.4187 27.8491 15.275 28.1954 15.275 28.6135C15.275 29.0316 15.4253 29.3844 15.7258 29.6719Z" fill="#6D6E76"/>
</svg>
