<svg width="33" height="33" viewBox="0 0 33 33" fill="none" xmlns="http://www.w3.org/2000/svg">
<g clip-path="url(#clip0_115_156)">
<path d="M16.5 32.8509C18.6856 32.8509 20.7432 32.4328 22.6725 31.5965C24.602 30.7604 26.3039 29.6054 27.7784 28.1315C29.2529 26.6578 30.4085 24.9567 31.245 23.0282C32.0817 21.0998 32.5 19.0433 32.5 16.8587C32.5 14.6741 32.0817 12.6176 31.245 10.6891C30.4085 8.76064 29.2529 7.05951 27.7784 5.58571C26.3039 4.11193 24.5993 2.95694 22.6646 2.12074C20.73 1.28455 18.6699 0.866455 16.4843 0.866455C14.2987 0.866455 12.2412 1.28455 10.3118 2.12074C8.38234 2.95694 6.683 4.11193 5.21372 5.58571C3.74444 7.05951 2.5915 8.76064 1.7549 10.6891C0.9183 12.6176 0.5 14.6741 0.5 16.8587C0.5 19.0433 0.9183 21.0998 1.7549 23.0282C2.5915 24.9567 3.74705 26.6578 5.22156 28.1315C6.69607 29.6054 8.39803 30.7604 10.3274 31.5965C12.2568 32.4328 14.3144 32.8509 16.5 32.8509ZM16.5 30.1854C14.649 30.1854 12.9183 29.8405 11.3078 29.1507C9.69738 28.4609 8.28299 27.5071 7.06469 26.2894C5.8464 25.0717 4.89477 23.658 4.2098 22.0483C3.52483 20.4387 3.18235 18.7088 3.18235 16.8587C3.18235 15.0086 3.52483 13.2787 4.2098 11.669C4.89477 10.0594 5.84378 8.64305 7.05685 7.42012C8.26992 6.19718 9.68168 5.2434 11.2921 4.55876C12.9026 3.87414 14.6333 3.53183 16.4843 3.53183C18.3353 3.53183 20.066 3.87414 21.6765 4.55876C23.2869 5.2434 24.7039 6.19718 25.9275 7.42012C27.151 8.64305 28.1079 10.0594 28.798 11.669C29.4882 13.2787 29.8333 15.0086 29.8333 16.8587C29.8333 18.7088 29.4908 20.4387 28.8059 22.0483C28.1209 23.658 27.1692 25.0717 25.9509 26.2894C24.7326 27.5071 23.3156 28.4609 21.6999 29.1507C20.0843 29.8405 18.351 30.1854 16.5 30.1854ZM12.9235 24.604C13.1327 24.8025 13.4072 24.8965 13.747 24.886C14.0869 24.8757 14.3666 24.7659 14.5863 24.5569L21.1274 18.3952C21.4202 18.1234 21.6163 17.7994 21.7156 17.4231C21.815 17.0468 21.815 16.6705 21.7156 16.2942C21.6163 15.9179 21.4202 15.5939 21.1274 15.3221L14.5863 9.17612C14.3457 8.94617 14.066 8.82597 13.747 8.81551C13.4281 8.80507 13.1588 8.90959 12.9392 9.12908C12.6987 9.34858 12.5732 9.62557 12.5627 9.96005C12.5523 10.2945 12.6673 10.5767 12.9078 10.8067L19.3549 16.8587L12.9078 22.9262C12.6778 23.1457 12.5627 23.4227 12.5627 23.7572C12.5627 24.0917 12.683 24.3739 12.9235 24.604Z" fill="#6D6E76"/>
</g>
<defs>
<clipPath id="clip0_115_156">
<rect width="32" height="32" fill="white" transform="translate(0.5 0.866455)"/>
</clipPath>
</defs>
</svg>
