<svg width="78" height="173" viewBox="0 0 78 173" fill="none" xmlns="http://www.w3.org/2000/svg">
<path d="M10 13.9788C10 11.7696 11.7909 9.97876 14 9.97876L18 9.97876C51.1371 9.97876 78 36.8417 78 69.9788L78 156.979C78 165.815 70.8366 172.979 62 172.979L26 172.979C17.1634 172.979 10 165.815 10 156.979L10 13.9788Z" fill="#BED3FF"/>
<path d="M1.5 4.97876C1.5 3.59805 2.61929 2.47876 4 2.47876L8 2.47876C40.3087 2.47876 66.5 28.6701 66.5 60.9788L66.5 147.979C66.5 155.987 60.0081 162.479 52 162.479L16 162.479C7.99187 162.479 1.5 155.987 1.5 147.979L1.5 4.97876Z" stroke="#7A73FF" stroke-width="3"/>
</svg>
